<svg width="24" height="21" viewBox="0 0 24 21" fill="none" xmlns="http://www.w3.org/2000/svg">
<path d="M22.4994 0.3928C22.2622 0.196203 21.9762 0.0674534 21.6718 0.0202012C21.3673 -0.0270511 21.0558 0.008955 20.7702 0.124402L1.06167 8.08062C0.743194 8.2115 0.472051 8.43614 0.28424 8.72473C0.0964293 9.01333 0.000833099 9.35221 0.0101421 9.69641C0.0194512 10.0406 0.133225 10.3738 0.336361 10.6518C0.539496 10.9299 0.822384 11.1395 1.14747 11.253L5.40003 12.7292L7.70451 20.3477C7.70891 20.3631 7.72321 20.373 7.72981 20.3873C7.75355 20.4481 7.78822 20.504 7.83211 20.5523C7.89878 20.6268 7.98486 20.6812 8.0807 20.7096C8.0917 20.714 8.0994 20.7239 8.1104 20.7261H8.117L8.1203 20.7272C8.2054 20.7455 8.29383 20.741 8.3766 20.714C8.3854 20.7118 8.3942 20.7118 8.4041 20.7085C8.48357 20.6806 8.55549 20.6347 8.6142 20.5743C8.6208 20.5666 8.6318 20.5655 8.6384 20.5589L11.9527 16.9003L16.7893 20.6458C17.083 20.8757 17.4449 21 17.8178 21C18.6252 21 19.3215 20.4346 19.4876 19.6459L23.0758 2.02628C23.1366 1.72717 23.1152 1.41714 23.0136 1.12927C22.9121 0.841398 22.7344 0.586478 22.4994 0.3917V0.3928ZM8.9068 14.1757L8.1291 17.9563L6.50662 12.5906L14.553 8.39962L9.0564 13.8974C8.98028 13.9734 8.92825 14.0702 8.9068 14.1757V14.1757ZM18.4096 19.4248C18.389 19.5246 18.343 19.6173 18.2762 19.6942C18.2093 19.771 18.1238 19.8294 18.0279 19.8637C17.9343 19.8997 17.833 19.9108 17.7338 19.8957C17.6347 19.8807 17.5412 19.8401 17.4625 19.7779L12.2233 15.7201C12.1137 15.6355 11.9764 15.5953 11.8386 15.6076C11.7007 15.6198 11.5726 15.6835 11.4797 15.7861L9.17299 18.3281L9.94959 14.5585L17.8574 6.64954C17.95 6.55663 18.0064 6.43367 18.0163 6.30287C18.0262 6.17206 17.989 6.04201 17.9115 5.9362C17.834 5.83038 17.7212 5.75576 17.5934 5.72581C17.4657 5.69586 17.3315 5.71254 17.215 5.77285L5.81583 11.7106L1.50717 10.2124C1.39293 10.1747 1.29329 10.1023 1.22212 10.0053C1.15095 9.90828 1.11178 9.79151 1.11007 9.67121C1.10459 9.54985 1.13702 9.42979 1.20285 9.32769C1.26868 9.22559 1.36466 9.14651 1.47747 9.10142L21.1827 1.14519C21.2837 1.10229 21.3946 1.08841 21.503 1.10513C21.6115 1.12184 21.7131 1.16848 21.7965 1.23979C21.8794 1.30688 21.942 1.39569 21.9774 1.49631C22.0127 1.59692 22.0194 1.70539 21.9967 1.80959L18.4096 19.4259V19.4248Z" fill="white"/>
</svg>
