<svg width="25" height="17" viewBox="0 0 25 17" fill="none" xmlns="http://www.w3.org/2000/svg">
<path d="M24.1096 3.18122L12.6096 8.50011L1.10962 3.18122M24.1096 15.2822V1.71806C24.1096 1.40524 23.9854 1.10523 23.7642 0.884038C23.543 0.662841 23.243 0.538574 22.9301 0.538574H2.28911C1.97629 0.538574 1.67628 0.662841 1.45508 0.884038C1.23389 1.10523 1.10962 1.40524 1.10962 1.71806V15.2822C1.10962 15.595 1.23389 15.895 1.45508 16.1162C1.67628 16.3374 1.97629 16.4617 2.28911 16.4617H22.9301C23.243 16.4617 23.543 16.3374 23.7642 16.1162C23.9854 15.895 24.1096 15.595 24.1096 15.2822Z" stroke="white" stroke-linecap="round" stroke-linejoin="round"/>
</svg>
