<svg width="23" height="23" viewBox="0 0 23 23" fill="none" xmlns="http://www.w3.org/2000/svg">
<path d="M20.9911 15.0626C19.789 14.9143 18.5954 14.704 17.415 14.4326C17.1268 14.3362 16.8187 14.3159 16.5204 14.3736C16.222 14.4313 15.9436 14.565 15.7121 14.7618C15.4113 15.0683 14.5428 15.9254 13.6403 16.8109C10.4066 15.2213 7.79146 12.6042 6.20432 9.36929C7.08415 8.46676 7.90721 7.60396 8.24212 7.30312C8.4389 7.0716 8.5726 6.79322 8.63028 6.49489C8.68796 6.19657 8.66766 5.88841 8.57134 5.60023C8.29957 4.418 8.08927 3.22248 7.94127 2.01848C7.92542 1.86516 7.87851 1.71667 7.8034 1.58207C7.72829 1.44747 7.62656 1.32958 7.5044 1.23557C7.38225 1.14157 7.24223 1.07342 7.09289 1.03529C6.94354 0.997156 6.78799 0.989836 6.63572 1.01377H1.79951C1.59989 1.0318 1.41302 1.11967 1.27181 1.26192C1.1306 1.40417 1.0441 1.59167 1.02754 1.79143C0.71534 6.1565 3.15047 10.8281 3.64431 11.725V11.759L3.71243 11.8896C5.48022 14.9556 8.0256 17.501 11.0916 19.2688V19.2688L11.3414 19.4107C12.4766 20.0124 16.9893 22.2829 21.2068 21.9707C21.4086 21.9567 21.5988 21.8713 21.7433 21.7299C21.8879 21.5884 21.9774 21.4001 21.9958 21.1987V16.3682C22.0197 16.2159 22.0124 16.0604 21.9743 15.911C21.9361 15.7617 21.868 15.6216 21.774 15.4995C21.68 15.3773 21.5621 15.2756 21.4275 15.2005C21.2929 15.1254 21.1444 15.0785 20.9911 15.0626Z" stroke="white" stroke-linecap="round" stroke-linejoin="round"/>
</svg>
