<svg width="40" height="37" viewBox="0 0 40 37" fill="none" xmlns="http://www.w3.org/2000/svg">
<path d="M38.9433 0.68017C38.5326 0.339744 38.0374 0.116802 37.5102 0.0349802C36.9831 -0.0468415 36.4436 0.0155064 35.949 0.215414L1.8219 13.9924C1.27042 14.219 0.800914 14.608 0.475702 15.1077C0.150489 15.6074 -0.0150448 16.1942 0.00107473 16.7902C0.0171942 17.3863 0.214205 17.9633 0.565953 18.4447C0.917701 18.9261 1.40755 19.2891 1.97047 19.4856L9.33418 22.0418L13.3246 35.234C13.3322 35.2606 13.357 35.2778 13.3684 35.3025C13.4095 35.4078 13.4696 35.5046 13.5455 35.5883C13.661 35.7172 13.81 35.8115 13.976 35.8606C13.9951 35.8683 14.0084 35.8854 14.0274 35.8892H14.0389L14.0446 35.8911C14.1919 35.9228 14.3451 35.9149 14.4884 35.8683C14.5036 35.8644 14.5189 35.8644 14.536 35.8587C14.6736 35.8104 14.7981 35.7309 14.8998 35.6263C14.9112 35.613 14.9303 35.6111 14.9417 35.5997L20.6807 29.2645L29.0558 35.7502C29.5644 36.1482 30.191 36.3635 30.8367 36.3635C32.2348 36.3635 33.4405 35.3844 33.7281 34.0188L39.9414 3.5087C40.0468 2.99076 40.0096 2.45391 39.8338 1.95544C39.658 1.45696 39.3503 1.01554 38.9433 0.678265V0.68017ZM15.4065 24.5465L14.0598 31.0931L11.2503 21.8018L25.1835 14.5447L15.6655 24.0646C15.5337 24.1963 15.4436 24.3639 15.4065 24.5465ZM31.8615 33.6359C31.8257 33.8086 31.7461 33.9692 31.6304 34.1023C31.5147 34.2354 31.3666 34.3365 31.2005 34.3959C31.0385 34.4583 30.863 34.4774 30.6913 34.4513C30.5197 34.4253 30.3577 34.3549 30.2215 34.2473L21.1492 27.2208C20.9596 27.0743 20.7217 27.0048 20.4831 27.026C20.2444 27.0472 20.0225 27.1575 19.8616 27.335L15.8674 31.7369L17.2122 25.2094L30.9053 11.5143C31.0657 11.3534 31.1632 11.1405 31.1804 10.914C31.1976 10.6875 31.1332 10.4623 30.999 10.2791C30.8647 10.0959 30.6694 9.96665 30.4482 9.91478C30.2271 9.86291 29.9947 9.8918 29.7929 9.99623L10.0542 20.278L2.59332 17.6837C2.3955 17.6184 2.22297 17.493 2.09972 17.3251C1.97648 17.1571 1.90867 16.9549 1.90571 16.7466C1.89622 16.5365 1.95236 16.3286 2.06636 16.1518C2.18036 15.975 2.34655 15.838 2.54189 15.76L36.6633 1.98301C36.8382 1.90872 37.0303 1.88469 37.2181 1.91363C37.4058 1.94257 37.5818 2.02333 37.7262 2.14682C37.8697 2.26298 37.9782 2.41677 38.0394 2.59099C38.1006 2.76522 38.1122 2.95304 38.0728 3.13347L31.8615 33.6378V33.6359Z" fill="white"/>
</svg>
