<svg width="42" height="30" viewBox="0 0 42 30" fill="none" xmlns="http://www.w3.org/2000/svg">
<path d="M41 5.5959L21 14.8462L1 5.5959M41 26.641V3.05128C41 2.50725 40.7839 1.9855 40.3992 1.60081C40.0145 1.21612 39.4928 1 38.9487 1H3.05128C2.50725 1 1.9855 1.21612 1.60081 1.60081C1.21612 1.9855 1 2.50725 1 3.05128V26.641C1 27.1851 1.21612 27.7068 1.60081 28.0915C1.9855 28.4762 2.50725 28.6923 3.05128 28.6923H38.9487C39.4928 28.6923 40.0145 28.4762 40.3992 28.0915C40.7839 27.7068 41 27.1851 41 26.641Z" stroke="white" stroke-width="2" stroke-linecap="round" stroke-linejoin="round"/>
</svg>
