<svg width="35" height="31" viewBox="0 0 35 31" fill="none" xmlns="http://www.w3.org/2000/svg">
<path d="M31.1541 0.0854492H13.8463C12.9285 0.0864694 12.0486 0.455956 11.3997 1.11284C10.7507 1.76973 10.3857 2.66037 10.3847 3.58934V8.26121H3.46157C2.54381 8.26223 1.66393 8.63171 1.01498 9.2886C0.366031 9.94549 0.00100787 10.8361 0 11.7651V22.2768C0.00100787 23.2058 0.366031 24.0964 1.01498 24.7533C1.66393 25.4102 2.54381 25.7797 3.46157 25.7807H4.61542V29.2846C4.61547 29.5155 4.68317 29.7413 4.80996 29.9333C4.93675 30.1254 5.11694 30.275 5.32775 30.3634C5.53856 30.4518 5.77052 30.4749 5.99432 30.4299C6.21811 30.3848 6.42369 30.2736 6.58505 30.1103L10.8625 25.7807H20.7694C21.6872 25.7797 22.567 25.4102 23.216 24.7533C23.8649 24.0964 24.23 23.2058 24.231 22.2768V21.1088C24.231 20.7991 24.1094 20.502 23.893 20.2829C23.6766 20.0639 23.3831 19.9409 23.0771 19.9409C22.7711 19.9409 22.4776 20.0639 22.2612 20.2829C22.0448 20.502 21.9233 20.7991 21.9233 21.1088V22.2768C21.9231 22.5865 21.8015 22.8835 21.5851 23.1025C21.3687 23.3215 21.0754 23.4446 20.7694 23.4448H10.3847C10.2332 23.4447 10.0831 23.475 9.94317 23.5337C9.80319 23.5924 9.67602 23.6785 9.56893 23.787L6.92313 26.465V24.6127C6.92313 24.303 6.80157 24.0059 6.58518 23.7868C6.36879 23.5678 6.0753 23.4448 5.76928 23.4448H3.46157C3.1556 23.4446 2.86222 23.3215 2.64587 23.1025C2.42952 22.8835 2.30789 22.5865 2.30771 22.2768V11.7651C2.30789 11.4554 2.42952 11.1584 2.64587 10.9394C2.86222 10.7204 3.1556 10.5973 3.46157 10.5971H10.3847V14.101C10.3857 15.03 10.7507 15.9206 11.3997 16.5775C12.0486 17.2344 12.9285 17.6039 13.8463 17.6049H23.7348L27.9579 21.93C28.118 22.0938 28.3223 22.206 28.5452 22.2526C28.7681 22.2991 28.9996 22.2779 29.2106 22.1916C29.4216 22.1053 29.6027 21.9577 29.7311 21.7675C29.8594 21.5773 29.9294 21.3528 29.9321 21.1225L29.9732 17.6049H31.1541C32.0719 17.6039 32.9517 17.2344 33.6007 16.5775C34.2496 15.9206 34.6147 15.03 34.6157 14.101V3.58934C34.6147 2.66037 34.2496 1.76973 33.6007 1.11284C32.9517 0.455956 32.0719 0.0864694 31.1541 0.0854492ZM32.308 14.101C32.3078 14.4107 32.1861 14.7077 31.9698 14.9267C31.7535 15.1457 31.4601 15.2688 31.1541 15.269H28.8329C28.5292 15.269 28.2377 15.3902 28.0217 15.6062C27.8057 15.8223 27.6826 16.1159 27.679 16.4233L27.6565 18.2985L25.0373 15.6158C24.9301 15.506 24.8024 15.4188 24.6617 15.3593C24.521 15.2998 24.37 15.2691 24.2175 15.269H13.8463C13.5403 15.2688 13.2469 15.1457 13.0306 14.9267C12.8142 14.7077 12.6926 14.4107 12.6924 14.101V3.58934C12.6926 3.27964 12.8142 2.98267 13.0306 2.76367C13.2469 2.54468 13.5403 2.42157 13.8463 2.42138H31.1541C31.4601 2.42157 31.7535 2.54468 31.9698 2.76367C32.1861 2.98267 32.3078 3.27964 32.308 3.58934V14.101Z" fill="#635F5F"/>
</svg>
