<svg width="19" height="19" viewBox="0 0 19 19" fill="none" xmlns="http://www.w3.org/2000/svg">
<path d="M0.09375 1.14271C0.09375 1.01563 0.14423 0.893763 0.234085 0.803909C0.323939 0.714054 0.445808 0.663574 0.572882 0.663574C0.699956 0.663574 0.821824 0.714054 0.911679 0.803909C1.00153 0.893763 1.05201 1.01563 1.05201 1.14271V3.53837H3.44767V4.49663H1.05201V9.28795H13.0303V10.2462H1.05201V15.0375H7.28073V15.9958H1.05201V18.3915C1.05201 18.5185 1.00153 18.6404 0.911679 18.7302C0.821824 18.8201 0.699956 18.8706 0.572882 18.8706C0.445808 18.8706 0.323939 18.8201 0.234085 18.7302C0.14423 18.6404 0.09375 18.5185 0.09375 18.3915V1.14271ZM17.8216 3.53837H5.84333V1.14271C5.84333 1.01563 5.79285 0.893763 5.703 0.803909C5.61314 0.714054 5.49127 0.663574 5.3642 0.663574C5.23713 0.663574 5.11526 0.714054 5.0254 0.803909C4.93555 0.893763 4.88507 1.01563 4.88507 1.14271V6.89229C4.88507 7.01936 4.93555 7.14123 5.0254 7.23109C5.11526 7.32094 5.23713 7.37142 5.3642 7.37142C5.49127 7.37142 5.61314 7.32094 5.703 7.23109C5.79285 7.14123 5.84333 7.01936 5.84333 6.89229V4.49663H17.8216C17.9487 4.49663 18.0706 4.44615 18.1604 4.35629C18.2503 4.26644 18.3008 4.14457 18.3008 4.0175C18.3008 3.89042 18.2503 3.76855 18.1604 3.6787C18.0706 3.58885 17.9487 3.53837 17.8216 3.53837ZM18.3008 15.5167C18.3008 15.4537 18.2884 15.3914 18.2644 15.3333C18.2403 15.2751 18.205 15.2223 18.1605 15.1778C18.116 15.1333 18.0632 15.098 18.005 15.0739C17.9469 15.0499 17.8846 15.0375 17.8216 15.0375H9.67639V12.6419C9.67639 12.5148 9.62591 12.3929 9.53605 12.3031C9.4462 12.2132 9.32433 12.1627 9.19726 12.1627C9.07018 12.1627 8.94831 12.2132 8.85846 12.3031C8.7686 12.3929 8.71812 12.5148 8.71812 12.6419V18.3915C8.71812 18.5185 8.7686 18.6404 8.85846 18.7302C8.94831 18.8201 9.07018 18.8706 9.19726 18.8706C9.32433 18.8706 9.4462 18.8201 9.53605 18.7302C9.62591 18.6404 9.67639 18.5185 9.67639 18.3915V15.9958H17.8216C17.8846 15.9958 17.9469 15.9835 18.005 15.9594C18.0632 15.9353 18.116 15.9 18.1605 15.8555C18.205 15.811 18.2403 15.7582 18.2644 15.7001C18.2884 15.6419 18.3008 15.5796 18.3008 15.5167ZM17.8216 9.28795H15.426V6.89229C15.426 6.76521 15.3755 6.64335 15.2856 6.55349C15.1958 6.46364 15.0739 6.41316 14.9468 6.41316C14.8198 6.41316 14.6979 6.46364 14.608 6.55349C14.5182 6.64335 14.4677 6.76521 14.4677 6.89229V12.6419C14.4677 12.7689 14.5182 12.8908 14.608 12.9807C14.6979 13.0705 14.8198 13.121 14.9468 13.121C15.0739 13.121 15.1958 13.0705 15.2856 12.9807C15.3755 12.8908 15.426 12.7689 15.426 12.6419V10.2462H17.8216C17.9487 10.2462 18.0706 10.1957 18.1604 10.1059C18.2503 10.016 18.3008 9.89415 18.3008 9.76708C18.3008 9.64001 18.2503 9.51814 18.1604 9.42828C18.0706 9.33843 17.9487 9.28795 17.8216 9.28795Z" fill="#FFB300"/>
</svg>
