<svg width="19" height="19" viewBox="0 0 19 19" fill="none" xmlns="http://www.w3.org/2000/svg">
<path d="M14.3697 12.3554C14.0268 12.3554 13.6915 12.4571 13.4063 12.6476C13.1212 12.8382 12.8989 13.109 12.7677 13.4258C12.6365 13.7427 12.6021 14.0913 12.669 14.4277C12.7359 14.764 12.9011 15.073 13.1436 15.3155C13.3861 15.558 13.6951 15.7232 14.0314 15.7901C14.3678 15.857 14.7164 15.8226 15.0333 15.6914C15.3501 15.5602 15.6209 15.3379 15.8115 15.0527C16.002 14.7676 16.1037 14.4323 16.1037 14.0894C16.1031 13.6297 15.9202 13.189 15.5952 12.8639C15.2701 12.5389 14.8294 12.356 14.3697 12.3554ZM14.3697 14.9564C14.1982 14.9564 14.0306 14.9055 13.888 14.8103C13.7455 14.715 13.6343 14.5796 13.5687 14.4212C13.5031 14.2627 13.4859 14.0884 13.5194 13.9202C13.5528 13.7521 13.6354 13.5976 13.7566 13.4763C13.8779 13.3551 14.0324 13.2725 14.2006 13.239C14.3687 13.2056 14.5431 13.2228 14.7015 13.2884C14.8599 13.354 14.9953 13.4651 15.0906 13.6077C15.1859 13.7503 15.2367 13.9179 15.2367 14.0894C15.2366 14.3193 15.1452 14.5397 14.9826 14.7023C14.82 14.8648 14.5996 14.9562 14.3697 14.9564ZM18.9502 13.1301C18.9801 13.0201 18.9877 12.9053 18.9727 12.7924C18.9578 12.6795 18.9205 12.5706 18.863 12.4722L18.0172 11.0058C17.9018 10.807 17.7124 10.6621 17.4904 10.6027C17.2684 10.5434 17.0319 10.5744 16.8327 10.6891L16.1037 11.076V10.1879C16.1036 9.95799 16.0122 9.73755 15.8496 9.57499C15.687 9.41243 15.4666 9.32104 15.2367 9.32088H13.5027C13.2728 9.32104 13.0524 9.41243 12.8898 9.57499C12.7273 9.73755 12.6359 9.95799 12.6357 10.1879L12.6272 11.1048L11.9068 10.6883C11.7075 10.5741 11.471 10.5435 11.2492 10.6031C11.0274 10.6628 10.8382 10.8079 10.7231 11.0066L9.87557 12.4731C9.76138 12.6724 9.73077 12.9088 9.79043 13.1306C9.85009 13.3524 9.99516 13.5416 10.1939 13.6567L10.9034 14.1122L10.1931 14.522C9.99443 14.6375 9.8496 14.827 9.79026 15.0489C9.73092 15.2709 9.76189 15.5073 9.87642 15.7065L10.7223 17.1713C10.7792 17.2701 10.855 17.3566 10.9454 17.4261C11.0357 17.4955 11.1389 17.5465 11.249 17.576C11.3591 17.6056 11.4739 17.6132 11.5869 17.5984C11.6999 17.5835 11.8089 17.5466 11.9076 17.4897L12.6357 17.0799V17.9909C12.6359 18.2208 12.7273 18.4412 12.8899 18.6038C13.0524 18.7663 13.2729 18.8577 13.5028 18.8579H15.2368C15.4666 18.8577 15.6871 18.7663 15.8496 18.6038C16.0122 18.4412 16.1036 18.2208 16.1038 17.9909L16.1105 17.0858L16.1215 17.079L16.8336 17.4905C17.033 17.604 17.2692 17.6343 17.4909 17.5747C17.7125 17.5151 17.9017 17.3704 18.0172 17.1721L18.8631 15.7074C18.9783 15.5083 19.0097 15.2716 18.9504 15.0493C18.8912 14.8271 18.7462 14.6374 18.5472 14.522H18.5463L17.8436 14.0623L18.5472 13.6568C18.6458 13.5999 18.7322 13.5242 18.8014 13.4338C18.8706 13.3434 18.9212 13.2402 18.9502 13.1301ZM17.4101 13.3122C17.2741 13.3913 17.1612 13.5047 17.0828 13.6411C17.0043 13.7775 16.963 13.9321 16.963 14.0894C16.963 14.2468 17.0043 14.4014 17.0828 14.5378C17.1612 14.6742 17.2741 14.7876 17.4101 14.8667L18.1129 15.2723L17.2662 16.7396L16.5465 16.3238C16.4188 16.2493 16.2737 16.2097 16.1258 16.2091C15.9778 16.2085 15.8324 16.2469 15.7041 16.3204L15.6727 16.3374C15.5411 16.4118 15.4314 16.5196 15.3548 16.65C15.2783 16.7804 15.2375 16.9287 15.2367 17.0799V17.9909H13.5027V17.0799C13.5017 16.9272 13.4601 16.7776 13.3821 16.6463C13.3042 16.5151 13.1926 16.407 13.059 16.3331C12.9235 16.2543 12.7696 16.2125 12.6128 16.212C12.4657 16.2115 12.3211 16.2501 12.1937 16.3238L11.4733 16.7386L10.6274 15.2722L11.3352 14.8633C11.4678 14.7824 11.5773 14.6688 11.6534 14.5335C11.7294 14.3981 11.7694 14.2455 11.7696 14.0903C11.7698 13.9351 11.7301 13.7824 11.6543 13.6468C11.5786 13.5113 11.4693 13.3975 11.337 13.3164L10.6266 12.9057L11.4741 11.4393L12.1921 11.8542C12.3257 11.9295 12.4769 11.968 12.6302 11.9659C12.7835 11.9639 12.9336 11.9212 13.0651 11.8423C13.1973 11.7682 13.3074 11.6603 13.3843 11.5297C13.4612 11.3991 13.5021 11.2505 13.5028 11.0989V10.1879H15.2368V11.0989C15.2376 11.2502 15.2784 11.3986 15.3552 11.5291C15.4319 11.6595 15.5418 11.7673 15.6737 11.8415L15.6813 11.8457C15.8118 11.9238 15.9606 11.9658 16.1127 11.9674C16.2647 11.9691 16.4145 11.9303 16.5466 11.855L17.2671 11.4401L18.1129 12.9066L17.4101 13.3122ZM8.14237 5.69032C7.62945 5.69032 7.12805 5.84242 6.70157 6.12738C6.27509 6.41235 5.94269 6.81738 5.7464 7.29126C5.55011 7.76513 5.49876 8.28658 5.59882 8.78964C5.69889 9.29271 5.94588 9.75481 6.30857 10.1175C6.67127 10.4802 7.13336 10.7272 7.63643 10.8272C8.13949 10.9273 8.66094 10.876 9.13482 10.6797C9.60869 10.4834 10.0137 10.151 10.2987 9.7245C10.5837 9.29803 10.7358 8.79662 10.7358 8.2837C10.735 7.59613 10.4615 6.93693 9.97533 6.45074C9.48914 5.96456 8.82995 5.69108 8.14237 5.69032ZM8.14237 10.0101C7.80093 10.0101 7.46715 9.90883 7.18325 9.71913C6.89934 9.52944 6.67807 9.25981 6.5474 8.94436C6.41674 8.6289 6.38255 8.28178 6.44916 7.9469C6.51578 7.61201 6.6802 7.3044 6.92164 7.06296C7.16308 6.82153 7.47069 6.6571 7.80557 6.59049C8.14046 6.52388 8.48757 6.55807 8.80303 6.68873C9.11848 6.8194 9.38811 7.04067 9.5778 7.32457C9.7675 7.60848 9.86875 7.94225 9.86875 8.2837C9.86815 8.74138 9.68607 9.18014 9.36244 9.50377C9.03881 9.82739 8.60005 10.0095 8.14237 10.0101ZM2.3333 13.2613L0.927808 10.8263C0.775204 10.5613 0.733893 10.2467 0.812935 9.95131C0.891976 9.65595 1.08492 9.40398 1.34946 9.25066L2.52888 8.56992C2.57503 8.53937 2.61236 8.49727 2.63717 8.4478C2.66198 8.39833 2.6734 8.34323 2.67028 8.28797C2.67439 8.2314 2.66348 8.17474 2.63865 8.12373C2.61382 8.07273 2.57595 8.02919 2.52888 7.99753L1.34946 7.31679C1.08481 7.16378 0.891745 6.91195 0.812681 6.61665C0.733617 6.32135 0.775026 6.00675 0.927808 5.74197L2.3333 3.30692C2.48639 3.04237 2.73809 2.84927 3.03326 2.76992C3.32843 2.69058 3.64302 2.73144 3.90812 2.88358L5.10448 3.57447C5.14903 3.5967 5.19859 3.60698 5.24831 3.60431C5.29803 3.60164 5.34621 3.5861 5.38812 3.55922L5.39744 3.5533C5.44116 3.53085 5.47819 3.49727 5.5048 3.45595C5.5314 3.41462 5.54665 3.36701 5.54899 3.31792V1.80406C5.54934 1.49832 5.67095 1.20521 5.88714 0.989023C6.10332 0.772835 6.39644 0.651228 6.70217 0.650879H9.58257C9.88831 0.651228 10.1814 0.772835 10.3976 0.989023C10.6138 1.20521 10.7354 1.49832 10.7358 1.80406V3.31792C10.7382 3.36688 10.7534 3.41435 10.7798 3.45564C10.8063 3.49692 10.843 3.53059 10.8865 3.5533C10.8983 3.56007 10.9102 3.56684 10.9203 3.57362C10.9601 3.59502 11.0046 3.6063 11.0498 3.60645C11.0949 3.6066 11.1395 3.59562 11.1794 3.57448L12.3758 2.88444C12.641 2.73244 12.9555 2.69156 13.2507 2.77072C13.546 2.84988 13.7979 3.04265 13.9514 3.30693L15.3569 5.74198C15.5097 6.00677 15.5511 6.32137 15.472 6.61666C15.393 6.91196 15.1999 7.16378 14.9353 7.31679L13.7685 7.9899C13.7557 7.99731 13.7498 8.01144 13.7382 8.02038H12.7832C12.8155 7.85892 12.8813 7.70604 12.9764 7.57158C13.0715 7.43712 13.1936 7.32408 13.3351 7.23974L14.5018 6.56663C14.5673 6.52847 14.6152 6.46594 14.6348 6.39267C14.6545 6.3194 14.6444 6.24133 14.6068 6.17547L13.2013 3.74042C13.1825 3.70761 13.1574 3.67885 13.1274 3.65579C13.0975 3.63273 13.0632 3.61584 13.0267 3.60608C12.9902 3.59631 12.9521 3.59388 12.9146 3.59892C12.8772 3.60396 12.8411 3.61636 12.8084 3.63542L11.6138 4.32462C11.4361 4.42038 11.2368 4.46911 11.035 4.46618C10.8332 4.46325 10.6354 4.40876 10.4606 4.30789C10.2857 4.20702 10.1395 4.06311 10.036 3.88984C9.93239 3.71657 9.87484 3.5197 9.86878 3.31792V1.80406C9.86858 1.72821 9.83837 1.65553 9.78473 1.60191C9.7311 1.54828 9.65842 1.51807 9.58257 1.51788H6.70217C6.62633 1.51807 6.55365 1.54829 6.50003 1.60191C6.4464 1.65554 6.41619 1.72822 6.41599 1.80406V3.31792C6.4147 3.51976 6.35967 3.71762 6.25654 3.89113C6.15341 4.06464 6.00592 4.20755 5.82924 4.30515C5.81654 4.31277 5.803 4.31955 5.78944 4.32632C5.61834 4.4219 5.42556 4.47194 5.22957 4.47163C5.03358 4.47133 4.84095 4.4207 4.67015 4.32459L3.47547 3.63458C3.40931 3.59729 3.33114 3.58748 3.25781 3.60728C3.18448 3.62708 3.12187 3.67489 3.08346 3.74042L1.67796 6.17547C1.64032 6.24133 1.63023 6.3194 1.6499 6.39267C1.66956 6.46594 1.71739 6.52847 1.78295 6.56663L2.96237 7.24737C3.13828 7.35712 3.28335 7.50984 3.38393 7.69114C3.48451 7.87244 3.53728 8.07637 3.53728 8.2837C3.53728 8.49103 3.48451 8.69495 3.38393 8.87626C3.28335 9.05756 3.13828 9.21028 2.96237 9.32003L1.78295 10.0008C1.71732 10.0391 1.66947 10.1018 1.64981 10.1752C1.63015 10.2486 1.64027 10.3268 1.67796 10.3928L3.08346 12.8278C3.12199 12.8932 3.18467 12.9409 3.25799 12.9605C3.33131 12.9802 3.40941 12.9702 3.47547 12.9328L4.67098 12.2428C4.84609 12.1421 5.04503 12.0904 5.247 12.0929C5.44897 12.0954 5.64654 12.1522 5.81908 12.2572C5.83094 12.2639 5.84279 12.2707 5.85295 12.2775C6.02303 12.3768 6.16436 12.5186 6.26307 12.689C6.36178 12.8594 6.41448 13.0526 6.41599 13.2495V14.7633C6.41619 14.8392 6.4464 14.9119 6.50003 14.9655C6.55365 15.0191 6.62633 15.0493 6.70217 15.0495H8.14232V15.9165H6.70217C6.39644 15.9162 6.10332 15.7946 5.88714 15.5784C5.67095 15.3622 5.54934 15.0691 5.54899 14.7633V13.2495C5.54665 13.2003 5.53131 13.1526 5.50454 13.1112C5.47777 13.0699 5.44052 13.0364 5.39659 13.0141C5.35426 12.9851 5.30499 12.9679 5.25382 12.9641C5.20265 12.9604 5.15141 12.9704 5.10533 12.9929L3.90897 13.683C3.64411 13.836 3.32931 13.8775 3.03382 13.7985C2.73833 13.7194 2.48635 13.5262 2.3333 13.2613Z" fill="#FFB300"/>
</svg>
