<svg width="22" height="22" viewBox="0 0 22 22" fill="none" xmlns="http://www.w3.org/2000/svg">
<path d="M18.2542 0.854331C17.4236 0.856782 16.6217 1.15807 15.995 1.70312C15.3683 2.24817 14.9586 3.00057 14.841 3.82277H13.3068C12.6509 3.82337 12.0221 4.08419 11.5583 4.54796C11.0945 5.01174 10.8337 5.64058 10.8331 6.29646V16.1912C10.8327 16.5847 10.6762 16.962 10.3979 17.2403C10.1197 17.5185 9.74239 17.675 9.34888 17.6755H7.81465C7.68957 16.8089 7.2409 16.0218 6.55893 15.4727C5.87695 14.9236 5.01231 14.6532 4.139 14.7159C3.26568 14.7786 2.44853 15.1698 1.852 15.8107C1.25547 16.4516 0.923828 17.2946 0.923828 18.1702C0.923828 19.0458 1.25547 19.8888 1.852 20.5297C2.44853 21.1706 3.26568 21.5618 4.139 21.6245C5.01231 21.6872 5.87695 21.4168 6.55893 20.8677C7.2409 20.3186 7.68957 19.5315 7.81465 18.6649H9.34888C10.0048 18.6643 10.6336 18.4035 11.0974 17.9397C11.5612 17.476 11.822 16.8471 11.8226 16.1912V6.29646C11.823 5.90295 11.9795 5.52569 12.2578 5.24744C12.536 4.96918 12.9133 4.81267 13.3068 4.81224H14.841C14.9371 5.46773 15.2196 6.08178 15.6548 6.58129C16.09 7.0808 16.6595 7.44472 17.2957 7.62973C17.9318 7.81473 18.6077 7.81302 19.2429 7.6248C19.8781 7.43658 20.4458 7.06979 20.8785 6.56808C21.3111 6.06638 21.5905 5.4509 21.6833 4.79494C21.7761 4.13898 21.6784 3.47017 21.4019 2.86814C21.1254 2.26611 20.6817 1.75623 20.1236 1.3992C19.5656 1.04217 18.9167 0.853043 18.2542 0.854331ZM4.40149 20.6439C3.91224 20.6439 3.43397 20.4988 3.02718 20.227C2.62038 19.9552 2.30332 19.5688 2.11609 19.1168C1.92886 18.6648 1.87988 18.1675 1.97533 17.6876C2.07077 17.2078 2.30637 16.767 2.65232 16.421C2.99827 16.0751 3.43905 15.8395 3.9189 15.744C4.39875 15.6486 4.89612 15.6976 5.34813 15.8848C5.80014 16.072 6.18648 16.3891 6.45829 16.7959C6.7301 17.2027 6.87518 17.6809 6.87518 18.1702C6.87458 18.8261 6.61376 19.4549 6.14999 19.9187C5.68621 20.3825 5.05737 20.6433 4.40149 20.6439ZM18.2542 6.7912C17.7649 6.7912 17.2867 6.64612 16.8799 6.37431C16.4731 6.10249 16.156 5.71616 15.9688 5.26415C15.7816 4.81214 15.7326 4.31476 15.828 3.83491C15.9235 3.35506 16.1591 2.91429 16.505 2.56834C16.851 2.22239 17.2917 1.98679 17.7716 1.89134C18.2514 1.79589 18.7488 1.84488 19.2008 2.03211C19.6528 2.21934 20.0392 2.5364 20.311 2.94319C20.5828 3.34999 20.7279 3.82825 20.7279 4.3175C20.7273 4.97338 20.4665 5.60223 20.0027 6.066C19.5389 6.52978 18.9101 6.79059 18.2542 6.7912ZM18.7489 14.757V13.2228C18.7483 12.5669 18.4875 11.9381 18.0237 11.4743C17.5599 11.0105 16.9311 10.7497 16.2752 10.7491H13.3068V11.7386H16.2752C16.6687 11.739 17.046 11.8955 17.3243 12.1738C17.6025 12.452 17.759 12.8293 17.7594 13.2228V14.757C16.8929 14.8821 16.1058 15.3308 15.5567 16.0128C15.0076 16.6947 14.7372 17.5594 14.7999 18.4327C14.8626 19.306 15.2538 20.1231 15.8947 20.7197C16.5356 21.3162 17.3786 21.6479 18.2542 21.6479C19.1297 21.6479 19.9728 21.3162 20.6137 20.7197C21.2546 20.1231 21.6458 19.306 21.7085 18.4327C21.7712 17.5594 21.5007 16.6947 20.9516 16.0128C20.4025 15.3308 19.6155 14.8821 18.7489 14.757ZM18.2542 20.6439C17.7649 20.6439 17.2867 20.4988 16.8799 20.227C16.4731 19.9552 16.156 19.5688 15.9688 19.1168C15.7816 18.6648 15.7326 18.1675 15.828 17.6876C15.9235 17.2078 16.1591 16.767 16.505 16.421C16.851 16.0751 17.2917 15.8395 17.7716 15.744C18.2514 15.6486 18.7488 15.6976 19.2008 15.8848C19.6528 16.072 20.0392 16.3891 20.311 16.7959C20.5828 17.2027 20.7279 17.6809 20.7279 18.1702C20.7273 18.8261 20.4665 19.4549 20.0027 19.9187C19.5389 20.3825 18.9101 20.6433 18.2542 20.6439ZM3.90675 7.73067V9.2649C3.90736 9.92077 4.16817 10.5496 4.63195 11.0134C5.09572 11.4772 5.72457 11.738 6.38045 11.7386H9.34888V10.7491H6.38045C5.98694 10.7487 5.60967 10.5922 5.33142 10.3139C5.05317 10.0357 4.89666 9.6584 4.89623 9.2649V7.73067C5.76281 7.60559 6.54985 7.15692 7.09895 6.47494C7.64806 5.79297 7.91847 4.92832 7.85577 4.05501C7.79307 3.1817 7.40191 2.36455 6.76101 1.76802C6.12011 1.17148 5.27705 0.839844 4.40149 0.839844C3.52593 0.839844 2.68287 1.17148 2.04197 1.76802C1.40107 2.36455 1.00991 3.1817 0.947207 4.05501C0.884506 4.92832 1.15492 5.79297 1.70403 6.47494C2.25313 7.15692 3.04017 7.60559 3.90675 7.73067ZM4.40149 1.84381C4.89074 1.84381 5.369 1.98889 5.7758 2.2607C6.1826 2.53252 6.49966 2.91885 6.68689 3.37086C6.87411 3.82287 6.9231 4.32025 6.82765 4.8001C6.7322 5.27995 6.49661 5.72072 6.15066 6.06667C5.8047 6.41262 5.36393 6.64822 4.88408 6.74367C4.40423 6.83912 3.90686 6.79013 3.45485 6.6029C3.00284 6.41567 2.6165 6.09861 2.34469 5.69182C2.07287 5.28502 1.92779 4.80676 1.92779 4.3175C1.9284 3.66163 2.18921 3.03278 2.65299 2.56901C3.11677 2.10523 3.74561 1.84441 4.40149 1.84381Z" fill="#FFB300"/>
</svg>
