<svg width="34" height="34" viewBox="0 0 34 34" fill="none" xmlns="http://www.w3.org/2000/svg">
<path d="M33 33L25.4446 25.4312M29.6316 15.3158C29.6316 19.1126 28.1233 22.7539 25.4386 25.4386C22.7539 28.1233 19.1126 29.6316 15.3158 29.6316C11.519 29.6316 7.87773 28.1233 5.193 25.4386C2.50827 22.7539 1 19.1126 1 15.3158C1 11.519 2.50827 7.87773 5.193 5.193C7.87773 2.50827 11.519 1 15.3158 1C19.1126 1 22.7539 2.50827 25.4386 5.193C28.1233 7.87773 29.6316 11.519 29.6316 15.3158V15.3158Z" stroke="white" stroke-width="2" stroke-linecap="round"/>
<path d="M21.28 16.536V15.288H16.672V10.32H15.304V15.288H10.696V16.536H15.304V21.648H16.672V16.536H21.28Z" fill="white"/>
</svg>
